<?xml version="1.0" encoding="UTF-8"?>
<svg id="_圖層_1" data-name="圖層_1" xmlns="http://www.w3.org/2000/svg" viewBox="0 0 65 65">
  <defs>
    <style>
      .cls-1 {
        fill: none;
        stroke: #c49a6c;
        stroke-miterlimit: 10;
        stroke-width: 2px;
      }
    </style>
  </defs>
  <path class="cls-1" d="M49.66,47.79c-17.92,0-32.44-14.52-32.44-32.44,0-4.76,1.03-9.27,2.87-13.35C8.84,7.09,1,18.41,1,31.57c0,17.92,14.52,32.44,32.44,32.44,13.15,0,24.47-7.84,29.56-19.09-4.07,1.84-8.58,2.87-13.34,2.87Z"/>
  <polygon class="cls-1" points="29.73 3.76 34.19 7.54 39.82 6.01 37.61 11.41 40.8 16.29 34.98 15.86 31.33 20.4 29.94 14.73 24.48 12.66 29.45 9.59 29.73 3.76"/>
  <polygon class="cls-1" points="50.47 24.54 51.22 30.32 56.41 32.98 51.14 35.49 50.21 41.25 46.21 37.01 40.44 37.9 43.23 32.78 40.6 27.58 46.33 28.65 50.47 24.54"/>
  <polygon class="cls-1" points="57.7 5.81 57.26 10.53 60.9 13.57 56.27 14.61 54.51 19.01 52.09 14.93 47.36 14.61 50.49 11.05 49.33 6.45 53.69 8.33 57.7 5.81"/>
</svg>