<?xml version="1.0" encoding="UTF-8"?>
<svg id="Raining" xmlns="http://www.w3.org/2000/svg" viewBox="0 0 65 65">
  <defs>
    <style>
      .cls-1 {
        fill: none;
        stroke: #c49a6c;
        stroke-miterlimit: 10;
        stroke-width: 2px;
      }
    </style>
  </defs>
  <g>
    <path class="cls-1" d="M16.67,17.98c2.91-5.3,8.57-8.9,15.08-8.9,9.48,0,17.17,7.63,17.17,17.05,0,1.32-.15,2.61-.44,3.84"/>
    <path class="cls-1" d="M49.4,23.63c1.09-.36,2.26-.55,3.47-.55,6.12,0,11.09,4.93,11.09,11.02s-4.96,11.02-11.09,11.02H15.57c-7.52,0-13.61-6.06-13.61-13.53s6.09-13.53,13.61-13.53c3.49,0,6.67,1.3,9.08,3.44"/>
  </g>
  <line class="cls-1" x1="17.96" y1="49.13" x2="14.96" y2="55.13"/>
  <line class="cls-1" x1="25.96" y1="49.13" x2="21.96" y2="57.13"/>
  <line class="cls-1" x1="39.96" y1="49.13" x2="35.96" y2="57.13"/>
  <line class="cls-1" x1="47.96" y1="49.13" x2="44.96" y2="55.13"/>
  <line class="cls-1" x1="32.96" y1="49.13" x2="29.96" y2="55.13"/>
</svg>