<?xml version="1.0" encoding="UTF-8"?>
<svg id="Storm" xmlns="http://www.w3.org/2000/svg" viewBox="0 0 65.05 65">
  <defs>
    <style>
      .cls-1 {
        fill: none;
        stroke: #c49a6c;
        stroke-miterlimit: 10;
        stroke-width: 2px;
      }
    </style>
  </defs>
  <path class="cls-1" d="M31.95,2.95c16.57-.07,30.02,4.79,30.05,10.86.03,6.07-13.38,11.06-29.95,11.13-16.57.07-30.02-4.79-30.05-10.86-.03-6.07,13.38-11.06,29.95-11.13Z"/>
  <path class="cls-1" d="M18.06,11.69c4.15-1.13,9.11-1.8,14.43-1.82,14.66-.05,26.57,4.86,26.59,10.96.02,6.1-11.85,11.08-26.52,11.13-14.67.05-26.57-4.86-26.59-10.96,0-.65.13-1.29.39-1.91"/>
  <path class="cls-1" d="M10.9,27.21c-.1.42-.14.84-.14,1.27.08,5.96,10.31,10.65,22.86,10.48,12.55-.17,22.65-5.14,22.57-11.09,0-.61-.12-1.21-.34-1.8"/>
  <path class="cls-1" d="M42.71,17.93c-2.86-.6-6.04-.91-9.37-.86-8.5.12-15.88,2.52-19.73,5.97"/>
  <path class="cls-1" d="M16.06,34.95c-.23.56-.34,1.13-.34,1.72.06,4.71,8.12,8.43,17.99,8.3,9.87-.13,17.82-4.07,17.76-8.78,0-.51-.11-1.01-.29-1.49"/>
  <path class="cls-1" d="M19.8,41.79c-.71.82-1.11,1.35-1.09,2.29.05,3.7,6.36,6.99,14.09,6.88,7.74-.1,14.19-4.34,14.14-8.04"/>
  <path class="cls-1" d="M39.18,50.85c-.82,2.86-4.53,5.05-9,5.11-5.11.07-9.29-2.67-9.34-6.12"/>
  <path class="cls-1" d="M34.23,55.83c.04,2.79-2.68,5.09-6.07,5.13-3.39.04-6.17-2.18-6.21-4.97-.01-.98.31-1.9.89-2.68"/>
</svg>