<?xml version="1.0" encoding="UTF-8"?>
<svg id="Thunder" xmlns="http://www.w3.org/2000/svg" viewBox="0 0 65.05 65">
  <defs>
    <style>
      .cls-1 {
        fill: none;
        stroke: #c49a6c;
        stroke-miterlimit: 10;
        stroke-width: 2px;
      }
    </style>
  </defs>
  <polyline class="cls-1" points="23 36.08 18 46.08 23 44.08 18 54.08"/>
  <polyline class="cls-1" points="47 31.08 42 41.08 47 39.08 42 49.08"/>
  <g>
    <g>
      <path class="cls-1" d="M32.49,17.01c1.88-3.55,5.53-5.96,9.73-5.96,6.12,0,11.08,5.11,11.08,11.42,0,.88-.1,1.75-.28,2.57"/>
      <path class="cls-1" d="M26.19,19.15c1.52-1.29,3.47-2.07,5.59-2.07,2.25,0,4.3.87,5.86,2.31"/>
      <path class="cls-1" d="M53.61,21.41c.7-.23,1.46-.35,2.24-.35,3.95,0,7.15,3.16,7.15,7.07s-3.2,7.07-7.15,7.07h-7.85"/>
    </g>
    <g>
      <path class="cls-1" d="M10.49,22.76c1.88-3.38,5.53-5.68,9.73-5.68,6.12,0,11.08,4.87,11.08,10.88,0,.84-.1,1.66-.28,2.45"/>
      <path class="cls-1" d="M18,40.08h-8.22c-4.85,0-8.78-3.87-8.78-8.63s3.93-8.63,8.78-8.63c2.25,0,4.3.83,5.85,2.2"/>
      <path class="cls-1" d="M31.61,26.37c.7-.23,1.46-.35,2.24-.35,3.95,0,7.15,3.15,7.15,7.04s-3.2,7.03-7.15,7.03h-9.85"/>
    </g>
  </g>
  <line class="cls-1" x1="14" y1="43.08" x2="10" y2="51.08"/>
  <line class="cls-1" x1="31" y1="43.08" x2="27" y2="51.08"/>
  <line class="cls-1" x1="53" y1="38.08" x2="49" y2="46.08"/>
</svg>